<?xml version="1.0" standalone="no"?>
<!DOCTYPE svg PUBLIC "-//W3C//DTD SVG 20010904//EN"
 "http://www.w3.org/TR/2001/REC-SVG-20010904/DTD/svg10.dtd">
<svg version="1.0" xmlns="http://www.w3.org/2000/svg"
 width="450.000000pt" height="450.000000pt" viewBox="0 0 450.000000 450.000000"
 preserveAspectRatio="xMidYMid meet">

<g transform="translate(0.000000,450.000000) scale(0.100000,-0.100000)"
fill="#000000" stroke="none">
<path d="M2572 3238 c-12 -16 -202 -347 -202 -354 0 -2 24 10 53 27 102 60
255 129 328 148 l74 19 47 78 c26 44 47 82 48 87 0 13 -336 8 -348 -5z"/>
<path d="M1183 3233 c3 -5 78 -136 167 -293 89 -157 194 -341 233 -409 39 -68
77 -126 85 -128 15 -6 242 142 242 158 0 5 -12 28 -27 52 -14 23 -47 78 -73
122 -25 44 -101 176 -169 293 l-123 212 -169 0 c-94 0 -168 -3 -166 -7z"/>
<path d="M2929 2964 c-1 -2 -1 -13 -1 -24 0 -32 1 -33 17 -20 13 11 13 14 -2
27 -16 12 -15 13 7 1 14 -7 30 -11 35 -9 6 1 6 -1 2 -6 -5 -4 -13 -8 -19 -8
-16 0 -19 -38 -5 -47 9 -6 6 -13 -8 -25 -18 -14 -18 -15 -1 -9 15 5 18 2 13
-20 -4 -24 -2 -25 32 -23 20 1 43 -1 51 -4 8 -3 27 -8 42 -11 15 -4 44 -21 64
-38 l36 -32 -16 40 c-41 99 -118 179 -191 199 -44 12 -55 14 -56 9z"/>
<path d="M2315 2409 c-181 -132 -372 -262 -432 -293 -18 -9 -33 -24 -33 -32 0
-25 192 -356 201 -347 4 5 41 67 82 138 40 72 107 189 149 260 212 366 233
405 221 405 -5 0 -89 -59 -188 -131z"/>
</g>
</svg>
